<mxfile host="app.diagrams.net" modified="2023-09-05T13:57:41.655Z" agent="Mozilla/5.0 (Windows NT 10.0; Win64; x64) AppleWebKit/537.36 (KHTML, like Gecko) Chrome/116.0.0.0 Safari/537.36 Viewer/98.9.8748.49" etag="aHmyZrdVKQBycny4Ki16" version="21.7.2" type="device">
  <diagram name="Página-1" id="dhXjCakokyzyo5NCg7RF">
    <mxGraphModel dx="1050" dy="542" grid="1" gridSize="10" guides="1" tooltips="1" connect="1" arrows="1" fold="1" page="1" pageScale="1" pageWidth="827" pageHeight="1169" math="0" shadow="0">
      <root>
        <mxCell id="0" />
        <mxCell id="1" parent="0" />
        <mxCell id="dganJIo0BV0voTtvrUBl-8" value="usuario" style="swimlane;fontStyle=0;childLayout=stackLayout;horizontal=1;startSize=26;horizontalStack=0;resizeParent=1;resizeParentMax=0;resizeLast=0;collapsible=1;marginBottom=0;align=center;fontSize=14;" vertex="1" parent="1">
          <mxGeometry x="830" y="510" width="160" height="116" as="geometry" />
        </mxCell>
        <mxCell id="dganJIo0BV0voTtvrUBl-9" value="nome: String" style="text;strokeColor=none;fillColor=none;spacingLeft=4;spacingRight=4;overflow=hidden;rotatable=0;points=[[0,0.5],[1,0.5]];portConstraint=eastwest;fontSize=12;whiteSpace=wrap;html=1;" vertex="1" parent="dganJIo0BV0voTtvrUBl-8">
          <mxGeometry y="26" width="160" height="30" as="geometry" />
        </mxCell>
        <mxCell id="dganJIo0BV0voTtvrUBl-10" value="email: String" style="text;strokeColor=none;fillColor=none;spacingLeft=4;spacingRight=4;overflow=hidden;rotatable=0;points=[[0,0.5],[1,0.5]];portConstraint=eastwest;fontSize=12;whiteSpace=wrap;html=1;" vertex="1" parent="dganJIo0BV0voTtvrUBl-8">
          <mxGeometry y="56" width="160" height="30" as="geometry" />
        </mxCell>
        <mxCell id="dganJIo0BV0voTtvrUBl-11" value="senha: String" style="text;strokeColor=none;fillColor=none;spacingLeft=4;spacingRight=4;overflow=hidden;rotatable=0;points=[[0,0.5],[1,0.5]];portConstraint=eastwest;fontSize=12;whiteSpace=wrap;html=1;" vertex="1" parent="dganJIo0BV0voTtvrUBl-8">
          <mxGeometry y="86" width="160" height="30" as="geometry" />
        </mxCell>
        <mxCell id="dganJIo0BV0voTtvrUBl-17" style="edgeStyle=orthogonalEdgeStyle;rounded=0;orthogonalLoop=1;jettySize=auto;html=1;exitX=1;exitY=1;exitDx=0;exitDy=0;exitPerimeter=0;entryX=0.048;entryY=0.705;entryDx=0;entryDy=0;entryPerimeter=0;endArrow=none;endFill=0;" edge="1" parent="1" source="dganJIo0BV0voTtvrUBl-13" target="dganJIo0BV0voTtvrUBl-15">
          <mxGeometry relative="1" as="geometry" />
        </mxCell>
        <mxCell id="dganJIo0BV0voTtvrUBl-19" style="edgeStyle=orthogonalEdgeStyle;rounded=0;orthogonalLoop=1;jettySize=auto;html=1;exitX=1;exitY=1;exitDx=0;exitDy=0;exitPerimeter=0;entryX=0;entryY=0.5;entryDx=0;entryDy=0;endArrow=none;endFill=0;" edge="1" parent="1" source="dganJIo0BV0voTtvrUBl-13" target="dganJIo0BV0voTtvrUBl-16">
          <mxGeometry relative="1" as="geometry">
            <Array as="points">
              <mxPoint x="90" y="635" />
              <mxPoint x="110" y="635" />
              <mxPoint x="110" y="490" />
            </Array>
          </mxGeometry>
        </mxCell>
        <mxCell id="dganJIo0BV0voTtvrUBl-13" value="Usuário" style="shape=umlActor;verticalLabelPosition=bottom;verticalAlign=top;html=1;outlineConnect=0;" vertex="1" parent="1">
          <mxGeometry x="60" y="555" width="30" height="60" as="geometry" />
        </mxCell>
        <mxCell id="dganJIo0BV0voTtvrUBl-23" style="edgeStyle=orthogonalEdgeStyle;rounded=0;orthogonalLoop=1;jettySize=auto;html=1;exitX=0.5;exitY=1;exitDx=0;exitDy=0;entryX=1;entryY=0.5;entryDx=0;entryDy=0;endArrow=none;endFill=0;" edge="1" parent="1" source="dganJIo0BV0voTtvrUBl-14" target="dganJIo0BV0voTtvrUBl-15">
          <mxGeometry relative="1" as="geometry" />
        </mxCell>
        <mxCell id="dganJIo0BV0voTtvrUBl-14" value="cadastro" style="ellipse;whiteSpace=wrap;html=1;align=center;" vertex="1" parent="1">
          <mxGeometry x="440" y="470" width="100" height="40" as="geometry" />
        </mxCell>
        <mxCell id="dganJIo0BV0voTtvrUBl-22" style="edgeStyle=orthogonalEdgeStyle;rounded=0;orthogonalLoop=1;jettySize=auto;html=1;exitX=0.5;exitY=1;exitDx=0;exitDy=0;endArrow=none;endFill=0;" edge="1" parent="1" source="dganJIo0BV0voTtvrUBl-15" target="dganJIo0BV0voTtvrUBl-21">
          <mxGeometry relative="1" as="geometry" />
        </mxCell>
        <mxCell id="dganJIo0BV0voTtvrUBl-15" value="login" style="ellipse;whiteSpace=wrap;html=1;align=center;" vertex="1" parent="1">
          <mxGeometry x="170" y="545" width="100" height="40" as="geometry" />
        </mxCell>
        <mxCell id="dganJIo0BV0voTtvrUBl-20" style="edgeStyle=orthogonalEdgeStyle;rounded=0;orthogonalLoop=1;jettySize=auto;html=1;exitX=1;exitY=1;exitDx=0;exitDy=0;entryX=0;entryY=0.5;entryDx=0;entryDy=0;endArrow=none;endFill=0;" edge="1" parent="1" source="dganJIo0BV0voTtvrUBl-16" target="dganJIo0BV0voTtvrUBl-14">
          <mxGeometry relative="1" as="geometry">
            <Array as="points">
              <mxPoint x="355" y="490" />
            </Array>
          </mxGeometry>
        </mxCell>
        <mxCell id="dganJIo0BV0voTtvrUBl-16" value="não tem login" style="ellipse;whiteSpace=wrap;html=1;align=center;" vertex="1" parent="1">
          <mxGeometry x="270" y="470" width="100" height="40" as="geometry" />
        </mxCell>
        <mxCell id="dganJIo0BV0voTtvrUBl-27" value="" style="edgeStyle=orthogonalEdgeStyle;rounded=0;orthogonalLoop=1;jettySize=auto;html=1;endArrow=none;endFill=0;" edge="1" parent="1" source="dganJIo0BV0voTtvrUBl-21" target="dganJIo0BV0voTtvrUBl-24">
          <mxGeometry relative="1" as="geometry" />
        </mxCell>
        <mxCell id="dganJIo0BV0voTtvrUBl-21" value="apontar o celular" style="ellipse;whiteSpace=wrap;html=1;align=center;" vertex="1" parent="1">
          <mxGeometry x="170" y="680" width="100" height="40" as="geometry" />
        </mxCell>
        <mxCell id="dganJIo0BV0voTtvrUBl-28" style="edgeStyle=orthogonalEdgeStyle;rounded=0;orthogonalLoop=1;jettySize=auto;html=1;exitX=1;exitY=0.5;exitDx=0;exitDy=0;endArrow=none;endFill=0;" edge="1" parent="1" source="dganJIo0BV0voTtvrUBl-24" target="dganJIo0BV0voTtvrUBl-25">
          <mxGeometry relative="1" as="geometry" />
        </mxCell>
        <mxCell id="dganJIo0BV0voTtvrUBl-24" value="tirar fotos" style="ellipse;whiteSpace=wrap;html=1;align=center;" vertex="1" parent="1">
          <mxGeometry x="314" y="680" width="100" height="40" as="geometry" />
        </mxCell>
        <mxCell id="dganJIo0BV0voTtvrUBl-29" style="edgeStyle=orthogonalEdgeStyle;rounded=0;orthogonalLoop=1;jettySize=auto;html=1;exitX=1;exitY=0.5;exitDx=0;exitDy=0;entryX=0;entryY=0.5;entryDx=0;entryDy=0;endArrow=none;endFill=0;" edge="1" parent="1" source="dganJIo0BV0voTtvrUBl-25" target="dganJIo0BV0voTtvrUBl-26">
          <mxGeometry relative="1" as="geometry" />
        </mxCell>
        <mxCell id="dganJIo0BV0voTtvrUBl-25" value="requisição para a IA" style="ellipse;whiteSpace=wrap;html=1;align=center;" vertex="1" parent="1">
          <mxGeometry x="460" y="680" width="100" height="40" as="geometry" />
        </mxCell>
        <mxCell id="dganJIo0BV0voTtvrUBl-26" value="descrever em voz alta&amp;nbsp;" style="ellipse;whiteSpace=wrap;html=1;align=center;" vertex="1" parent="1">
          <mxGeometry x="610" y="680" width="100" height="40" as="geometry" />
        </mxCell>
      </root>
    </mxGraphModel>
  </diagram>
</mxfile>
